<svg xmlns="http://www.w3.org/2000/svg" xmlns:xlink="http://www.w3.org/1999/xlink" xmlns:inkscape="http://www.inkscape.org/namespaces/inkscape" version="1.1" width="612" height="792" viewBox="0 0 612 792">
<defs>
<clipPath id="clip_1">
<path transform="matrix(1,0,0,-1,0,792)" d="M0 .028H611.972V792H0Z" clip-rule="evenodd" data-index="0"></path>
</clipPath>
</defs>
<g clip-path="url(#clip_1)">
<text xml:space="preserve" transform="matrix(1 0 -0 1 0 792)" font-size="16" font-family="Liberation Serif" font-weight="bold"><tspan y="-741.05" x="264.1 272.1 280.1 286.292 295.188 304.08399 312.08399 316.08399 327.636 332.068 339.156">Joshua Dick</tspan></text>
<text xml:space="preserve" transform="matrix(1 0 -0 1 0 792)" font-size="9" font-family="Liberation Serif"><tspan y="-729.2" x="180.3 186.753 191.253 194.25 201.243 205.23 209.73 211.98 214.23 220.728 225.228 227.721 231.708 236.208 240.708 247.70099 251.68799 253.93799 257.08799 259.33799 264.43199 268.93199 271.18199 274.179 278.679 283.179 287.679 290.676 292.926 297.426 301.926 306.426 309.378 313.878 318.378 322.878 327.378 329.628 332.823 335.073 337.566 342.066 345.56703 350.06703 354.56703 358.518 360.768 365.268 367.76103 371.74803 376.24803 380.74803 385.24803 393.53703 398.03703 405.03004 409.01704 411.51005 414.00306 416.25306 420.24006 424.74006">Norman, Oklahoma • +1 (918) 995-0876 • joshua.dick07@gmail.com</tspan></text>
<text xml:space="preserve" transform="matrix(1 0 -0 1 0 792)" font-size="12" font-family="Liberation Serif" font-weight="bold"><tspan y="-716.05" x="36.1 44.092 50.74 57.424005 62.728006 68.728008 72.72401 76.060009 82.060009">Education</tspan></text>
<text xml:space="preserve" transform="matrix(1 0 -0 1 0 792)" font-size="9" font-family="Liberation Serif" font-weight="bold"><tspan y="-697.55" x="36.1 42.553 47.593004 50.086004 54.586004 58.573 62.524003 66.025 68.518009 71.51501 76.01501 78.26501 82.76501 85.76201 88.01201 95.005008 100.009 102.502 107.002 112.042 116.542 124.039">University of Oklahoma</tspan></text>
<text xml:space="preserve" transform="matrix(1 0 -0 1 0 792)" font-size="9" font-family="Liberation Serif"><tspan y="-697.55" x="324.1"> </tspan></text>
<text xml:space="preserve" transform="matrix(1 0 -0 1 0 792)" font-size="9" font-family="Liberation Serif"><tspan y="-697.55" x="396.1 398.35 400.6 402.85 405.1 407.35 409.6 411.85 414.1">         </tspan></text>
<text xml:space="preserve" transform="matrix(1 0 -0 1 0 792)" font-size="9" font-family="Liberation Serif"><tspan y="-697.55" x="468.1 470.35 472.6 474.85 477.1 479.35 481.6 483.85 486.1 488.35">          </tspan></text>
<text xml:space="preserve" transform="matrix(1 0 -0 1 0 792)" font-size="9" font-family="Liberation Serif"><tspan y="-697.55" x="504.1 506.35 508.6 510.85 513.1 515.35 517.6 519.85 522.1 524.35 526.6 533.053 537.553 540.55 547.54299 551.52999 556.02999 558.27999 560.52999 567.02798">          Norman, OK</tspan></text>
<text xml:space="preserve" transform="matrix(1 0 -0 1 0 792)" font-size="11" font-family="OpenSymbol"><tspan y="-686.3" x="54.1"></tspan></text>
<text xml:space="preserve" transform="matrix(1 0 -0 1 0 792)" font-size="9" font-family="Liberation Serif"><tspan y="-686.3" x="72.1 80.101 84.051998 87.55299 90.09099 94.041988 97.03899 99.28899 103.78899 106.78599 109.03599 114.039989 118.026988 120.51999 124.50699 129.00699 132.99399 136.98099 139.23099 141.72399 146.22399 148.47399 154.46799 158.96799 165.96099 170.46099 174.96099 177.45398 181.44098 184.43798 186.68798 191.69197 195.67897 198.17197 202.15897 206.65897 210.64597 214.63297 216.88297 219.13297 227.13397 231.12097 235.62097 237.87097 242.37097 246.87097 251.37097">Master of Science in Computer Science, May 2026</tspan></text>
<text xml:space="preserve" transform="matrix(1 0 -0 1 0 792)" font-size="11" font-family="OpenSymbol"><tspan y="-674.65" x="54.1"></tspan></text>
<text xml:space="preserve" transform="matrix(1 0 -0 1 0 792)" font-size="9" font-family="Liberation Serif"><tspan y="-674.65" x="72.1 78.094 82.045 86.032 90.532 94.519 97.01199 101.51199 104.508998 106.758998 111.258998 114.256 116.506 121.509998 125.496997 127.98999 131.97699 136.47699 140.46399 144.45099 146.70099 149.19399 153.69399 155.94399 161.93799 166.43799 173.43099 177.93099 182.43099 184.92398 188.91098 191.90798 194.15798 199.64798 204.14798 208.64798 211.14098 215.64098 219.62798 223.57898 226.57598 229.06897 233.56897 238.06897 240.31897 242.56897 250.56998 254.55698 259.05699 261.30699 265.80699 270.30699 274.80699">Bachelor of Science in Computer Engineering, May 2025</tspan></text>
<text xml:space="preserve" transform="matrix(1 0 -0 1 0 792)" font-size="11" font-family="OpenSymbol"><tspan y="-663" x="54.1"></tspan></text>
<text xml:space="preserve" transform="matrix(1 0 -0 1 0 792)" font-size="9" font-family="Liberation Serif"><tspan y="-663" x="72.1 78.553 83.593 90.091 92.584 94.834 99.334 101.584 106.084 110.584 112.834 119.332 123.832 127.783 130.78 134.767 137.26 139.75299 142.00299 144.99999 153.00099 156.98799 160.489 162.982 166.969 169.96599 172.96298 176.46399 178.71399 183.21399 185.46399 189.96399 192.21399 198.71199 203.71599 210.21399">GPA: 3.98 Overall (Master’s 4.0 GPA)</tspan></text>
<text xml:space="preserve" transform="matrix(1 0 -0 1 0 792)" font-size="9" font-family="Liberation Serif" font-weight="bold"><tspan y="-647.25" x="36.1 42.553 46.54 49.033 53.02 57.52 62.02 67.024 70.021 72.271 79.26401 83.25101 87.75101 92.755008 97.759 102.259 105.256008 109.243007 111.493007 117.991008 122.491008 127.495 131.48201 134.98302 138.97002 145.46802 149.96802 153.95502 158.95902">Relevant Graduate Coursework:</tspan></text>
<text xml:space="preserve" transform="matrix(1 0 -0 1 0 792)" font-size="11" font-family="OpenSymbol"><tspan y="-634.5" x="54.1"></tspan></text>
<text xml:space="preserve" transform="matrix(1 0 -0 1 0 792)" font-size="9" font-family="Liberation Serif"><tspan y="-634.5" x="72.1 78.094 82.594 89.587009 94.087009 98.587009 101.08 105.031 108.028 110.278 116.776 119.269 122.77 125.263 129.763 134.263 136.513 139.51 144.01 147.00699 149.25699 155.75499 160.25499 162.74799 167.24799 171.74799 176.24799 183.24098 187.74098 192.24098 195.74199 197.99199 204.48999 208.47699 212.97699 215.46999 219.45699 221.94998 225.93698">Computer Vision for Autonomous Vehicles</tspan></text>
<text xml:space="preserve" transform="matrix(1 0 -0 1 0 792)" font-size="11" font-family="OpenSymbol"><tspan y="-634.5" x="268.4"></tspan></text>
<text xml:space="preserve" transform="matrix(1 0 -0 1 0 792)" font-size="9" font-family="Liberation Serif"><tspan y="-634.5" x="286.4 292.85298 297.35298 301.85298 305.83998 310.33998 314.32698 318.31398 322.81398 325.06398 333.06498 337.05198 341.03898 345.53898 348.03199 352.53199 356.51899 358.76899 364.25898 368.24598 372.23298 375.22999 379.72999 382.223 386.723">Advanced Machine Learning</tspan></text>
<text xml:space="preserve" transform="matrix(1 0 -0 1 0 792)" font-size="11" font-family="OpenSymbol"><tspan y="-621.35" x="54.1"></tspan></text>
<text xml:space="preserve" transform="matrix(1 0 -0 1 0 792)" font-size="9" font-family="Liberation Serif"><tspan y="-621.35" x="72.1 78.553 83.053 87.553 91.54 96.04 100.027 104.014 108.514 110.764 116.758 121.258 128.251 132.751 137.251 139.744 143.731 146.728 148.978 155.476 158.47299 162.45999 166.95999 169.45299 171.94599 175.93299 179.91999 182.41298 186.91298 189.90998">Advanced Computer Architecture</tspan></text>
<text xml:space="preserve" transform="matrix(1 0 -0 1 0 792)" font-size="11" font-family="OpenSymbol"><tspan y="-621.35" x="268.4"></tspan></text>
<text xml:space="preserve" transform="matrix(1 0 -0 1 0 792)" font-size="9" font-family="Liberation Serif"><tspan y="-621.35" x="286.4 292.39399 296.89399 303.887 308.387 312.887 315.38 319.331 321.824 324.31703 328.81703 333.31703 337.30403 339.79704 342.04704 347.53703 351.52403 355.51103 358.50804 363.00804 365.50105 370.00105 374.50105 376.75105 382.24104 386.74104 390.72804 395.22804 398.22505">Computational Learning Theory</tspan></text>

<path transform="matrix(1,0,0,-1,0,792)" stroke-width="1.5" stroke-linecap="butt" stroke-linejoin="round" fill="none" stroke="#ffffff" d="M31.35 631.35H569.85" data-index="2" style="opacity: 1; visibility: hidden; fill: rgb(121, 40, 202);"></path>

<path transform="matrix(1,0,0,-1,0,792)" stroke-width="1.5" stroke-linecap="butt" stroke-linejoin="round" fill="none" stroke="#ffffff" d="M30.6 645.3V617.5" data-index="4" style="opacity: 1; visibility: hidden;"></path>

<path transform="matrix(1,0,0,-1,0,792)" stroke-width="1.5" stroke-linecap="butt" stroke-linejoin="round" fill="none" stroke="#ffffff" d="M570.6 645.3V617.5" data-index="6" style="opacity: 1; visibility: hidden;"></path>
<text xml:space="preserve" transform="matrix(1 0 -0 1 0 792)" font-size="12" font-family="Liberation Serif" font-weight="bold"><tspan y="-606.3" x="36.1 44.092 50.092 56.74 62.079999 67.383998 70.71999 76.023998 82.708 88.012">Experience</tspan></text>
<text xml:space="preserve" transform="matrix(1 0 -0 1 0 792)" font-size="9" font-family="Liberation Serif" font-weight="bold"><tspan y="-587.8" x="36.1 42.553 46.09 48.34 53.344 57.844 61.345 64.342 68.329 75.781009 78.031009 84.52901 88.51601 92.503009 97.507 100 102.997 106.984 110.971">AI System Architect</tspan></text>
<text xml:space="preserve" transform="matrix(1 0 -0 1 0 792)" font-size="9" font-family="Liberation Serif"><tspan y="-587.8" x="288.1"> </tspan></text>
<text xml:space="preserve" transform="matrix(1 0 -0 1 0 792)" font-size="9" font-family="Liberation Serif"><tspan y="-587.8" x="360.1 362.35 364.6 366.85 369.1 371.35 373.6 375.85 378.1">         </tspan></text>
<text xml:space="preserve" transform="matrix(1 0 -0 1 0 792)" font-size="9" font-family="Liberation Serif"><tspan y="-587.8" x="396.1 398.35 400.6 402.85 405.1 407.35 409.6 411.85 414.1 416.35 418.6 420.85 423.1 425.35">              </tspan></text>
<text xml:space="preserve" transform="matrix(1 0 -0 1 0 792)" font-size="9" font-family="Liberation Serif"><tspan y="-587.8" x="432.1 434.35 436.6 438.85 441.1 443.35 445.6 447.85 450.1 452.35 454.6 456.85 459.1 461.35 463.6 465.85 468.1 474.55299 479.05299 483.55299 488.05299 491.59 494.083 496.333 500.833 505.333 509.833 514.333 518.833 525.331 529.282 533.269 537.256 544.24899 548.74899 552.73599 555.733 557.983 562.483 566.983 571.483">                August 2025–December 2025</tspan></text>
<text xml:space="preserve" transform="matrix(1 0 -0 1 0 792)" font-size="9" font-family="Liberation Serif" font-style="italic"><tspan y="-577.45" x="36.1 42.553 46.09 48.583 51.076 53.569 56.062 60.562 62.812 68.302 72.253 76.24 80.74 85.24 87.733 92.233 95.734 97.984 104.977008 107.227008 112.717 116.218 119.719 124.219 128.20601 130.699 135.199 137.692 141.679">Griffin Reynolds &amp; Associates</tspan></text>
<text xml:space="preserve" transform="matrix(1 0 -0 1 0 792)" font-size="9" font-family="Liberation Serif"><tspan y="-577.45" x="360.1 362.35 364.6 366.85 369.1 371.35 373.6">       </tspan></text>
<text xml:space="preserve" transform="matrix(1 0 -0 1 0 792)" font-size="9" font-family="Liberation Serif"><tspan y="-577.45" x="396.1"> </tspan></text>
<text xml:space="preserve" transform="matrix(1 0 -0 1 0 792)" font-size="9" font-family="Liberation Serif"><tspan y="-577.45" x="398.35"> </tspan></text>
<text xml:space="preserve" transform="matrix(1 0 -0 1 0 792)" font-size="11" font-family="OpenSymbol"><tspan y="-566.2" x="54.1"></tspan></text>
<text xml:space="preserve" transform="matrix(1 0 -0 1 0 792)" font-size="9" font-family="Liberation Serif"><tspan y="-566.2" x="72.1 78.553 82.54 87.04 91.027 93.520008 98.020008 102.520008 106.507 111.007 113.257 117.244 119.494 121.987 126.487 130.474 134.461 136.954 139.204 144.694 150.184 158.18502 160.43502 163.93602 168.43602 171.93703 174.43003 178.41703 185.41002 187.66002 192.16002 195.66103 198.15402 202.65402 207.15402 209.40402 215.90203 218.39502 220.88802 224.87502 231.86801 235.85501 238.10501 240.35501 244.85501 247.852 252.352 256.852 259.849 263.8 267.337 270.838 273.33103 277.83103 282.33103 284.58103 287.57804 290.53004 295.03004 302.02305 304.27305 308.77305 311.77006 316.27006 318.76307 323.26307 325.75608 330.25608 334.75608 338.74308 340.99308 343.48609 347.98609 350.23609 354.73609 357.7331 362.2331 366.7331 371.2331 375.2201 377.7131 380.20613 384.70613 389.20613 391.45613 393.70613 396.19914 400.69914 404.68614 407.17915 411.67915 416.17915 418.67216 423.17216">Developed a local LLM system using Ollama, progressing from prototype to production, including</tspan></text>
<text xml:space="preserve" transform="matrix(1 0 -0 1 0 792)" font-size="9" font-family="Liberation Serif"><tspan y="-566.2" x="428"> </tspan></text>
<text xml:space="preserve" transform="matrix(1 0 -0 1 0 792)" font-size="9" font-family="Liberation Serif"><tspan y="-555.45" x="72.1 78.553 85.051 88.048007 90.298007 94.285 97.282009 101.269008 105.256008 107.74901 110.242008 114.742008 119.242008 121.492008 123.742008 129.73601 136.23401 142.73201 144.98201 149.48201 151.975 156.475 160.462 162.955 165.448 169.948 173.935 176.185 178.678 183.178 185.67099 189.65799 194.15799 197.15499 201.14199 203.63498 206.12798 210.62798 215.12798 217.37798 219.62798 223.61498 228.11498 232.61498 234.86498 238.81598 243.31598 247.30298 249.79598 254.29598 258.283 260.776 263.269 267.769 272.269 274.519 279.019 282.01603 284.26603 286.75904 290.74604 293.74305 298.24305 302.23005 305.22706 307.47706 314.47007 318.97007 323.47007 327.45707 329.95008 333.45109 335.70109 338.6981 343.1981 346.1951 348.4451 352.9451 356.9321 359.9291 362.92613 367.42613 370.3781 377.37113 381.35813 385.85813 389.84513 393.83213 396.08213 398.57514 401.57215 405.55915 410.05915 414.04615 417.04316 421.54316 424.54017 427.53718">GUI creation, RAG pipeline integration, and evaluation of larger models for performance trade-offs</tspan></text>
<text xml:space="preserve" transform="matrix(1 0 -0 1 0 792)" font-size="11" font-family="OpenSymbol"><tspan y="-544.2" x="54.1"></tspan></text>
<text xml:space="preserve" transform="matrix(1 0 -0 1 0 792)" font-size="9" font-family="Liberation Serif"><tspan y="-544.2" x="72.1 77.55399 82.05399 86.55399 89.047 93.547 97.534 101.520999 104.518 108.505 113.005 115.255 119.242 121.492 125.992 129.493 133.48 136.47699 139.47399 142.47098 145.46797 147.96097 151.94797 156.44797 160.94797 163.44097 167.94097 170.19097 172.44097 176.94097 180.89197 185.39197 187.88497 192.38497 196.88497 200.87197 205.37197 207.86496 211.85196 214.10196 217.60297 222.10297 224.59597 229.09597 231.58896 234.08196 238.58196 243.08196 245.33196 247.58196 252.08196 256.06898 260.05598 264.55598 268.54298 273.04298 277.02998 281.52998 283.77998 286.77699 291.27699 294.274 296.524 301.024 305.524 310.024 313.021 315.514 319.501 323.488 327.988 332.488 334.98103 338.932 342.919 345.41203 347.66203 352.16203 355.66304 359.65003 362.64704 366.14805 368.39805 372.89805 375.39106 379.37806 381.62806 384.12107 388.62107 392.12208 394.61509 398.60209 401.0951 403.5881 407.5751">Engineered a user-friendly, deployable solution, packaged for non-technical users via installer</tspan></text>
<text xml:space="preserve" transform="matrix(1 0 -0 1 0 792)" font-size="9" font-family="Liberation Serif" font-weight="bold"><tspan y="-528.45" x="36.1 42.553 46.54 50.041 54.028 58.528 62.515 66.502 71.506 73.756 80.254 83.755 87.256 89.74899 93.24999 96.246997 100.746997 105.75099">Research Assistant</tspan></text>
<text xml:space="preserve" transform="matrix(1 0 -0 1 0 792)" font-size="9" font-family="Liberation Serif"><tspan y="-528.45" x="288.1"> </tspan></text>
<text xml:space="preserve" transform="matrix(1 0 -0 1 0 792)" font-size="9" font-family="Liberation Serif"><tspan y="-528.45" x="360.1 362.35 364.6 366.85 369.1 371.35 373.6 375.85 378.1 380.35 382.6 384.85 387.1 389.35 391.6 393.85 396.1 398.35 400.6 402.85 405.1 407.35 409.6">                       </tspan></text>
<text xml:space="preserve" transform="matrix(1 0 -0 1 0 792)" font-size="9" font-family="Liberation Serif"><tspan y="-528.45" x="432.1 434.35 436.6 438.85 441.1 443.35 445.6">       </tspan></text>
<text xml:space="preserve" transform="matrix(1 0 -0 1 0 792)" font-size="9" font-family="Liberation Serif"><tspan y="-528.45" x="468.1 470.35 472.6 474.85 477.1 479.35 481.6 483.85 486.1 489.601 493.552 498.052 502.552 506.539 509.536 514.036 516.286 520.786 525.286 529.786 534.286 538.786 546.787 550.774 555.274 557.524 562.024 566.524 571.024">        January 2024–May 2026</tspan></text>
<text xml:space="preserve" transform="matrix(1 0 -0 1 0 792)" font-size="9" font-family="Liberation Serif" font-style="italic"><tspan y="-518.1" x="36.1 41.554 46.054 50.041 54.541 59.041 63.028 67.015 71.515 73.765 79.255 83.755 88.255 92.755 96.256 98.506 103.995998 107.982997 111.48399 115.47099 119.97099 123.47199 127.45899 131.95899 134.20899 140.20299 144.18999 148.68999 151.18299 155.16999">Advanced Radar Research Center</tspan></text>
<text xml:space="preserve" transform="matrix(1 0 -0 1 0 792)" font-size="9" font-family="Liberation Serif"><tspan y="-518.1" x="360.1 362.35 364.6 366.85 369.1 371.35 373.6">       </tspan></text>
<text xml:space="preserve" transform="matrix(1 0 -0 1 0 792)" font-size="9" font-family="Liberation Serif"><tspan y="-518.1" x="432.1"> </tspan></text>
<text xml:space="preserve" transform="matrix(1 0 -0 1 0 792)" font-size="9" font-family="Liberation Serif"><tspan y="-518.1" x="434.35"> </tspan></text>
<text xml:space="preserve" transform="matrix(1 0 -0 1 0 792)" font-size="11" font-family="OpenSymbol"><tspan y="-506.85" x="54.1"></tspan></text>
<text xml:space="preserve" transform="matrix(1 0 -0 1 0 792)" font-size="9" font-family="Liberation Serif"><tspan y="-506.85" x="72.1 78.553 82.54 86.041 88.534 93.034 97.534 101.520999 106.020999 108.270999 112.257999 116.757999 121.257999 123.507999 130.50099 134.48799 138.98799 143.48799 146.48499 150.47199 154.45899 156.95198 161.45198 164.44898 168.43598 172.93598 175.18598 181.17998 186.18398 188.43398 192.42098 194.91397 197.91097 201.89797 206.39797 208.89096 211.38396 214.88497 217.13497 220.13196 224.63196 227.62895 229.87895 233.82996 238.32996 245.32295 252.31595 256.81596 261.31596 263.80897 267.79597 271.78297 274.27598 276.76899 281.26899 285.76899 288.01899 291.016 295.003 298.504 302.491 306.478 309.475 313.462 317.962 320.212 324.712 329.212 333.712 337.699 340.696 342.946 349.444 352.441 354.691 356.941 363.439 365.932 369.883 372.376 374.86903 377.36204 379.61204 384.65205 387.14506 391.64506 398.63807 402.58906 405.58607 409.08708 412.62409 417.12409">Designed and manufactured RF circuits for communication research under Dr. Hjalti Sigmarsson</tspan></text>
<text xml:space="preserve" transform="matrix(1 0 -0 1 0 792)" font-size="11" font-family="OpenSymbol"><tspan y="-495.2" x="54.1"></tspan></text>
<text xml:space="preserve" transform="matrix(1 0 -0 1 0 792)" font-size="9" font-family="Liberation Serif"><tspan y="-495.2" x="72.1 75.052 82.045 86.545 89.037998 93.024997 100.01799 104.00499 108.50499 110.997989 114.984989 119.484989 121.734989 128.23299 133.23699 138.24098 144.73899 146.98899 151.48899 155.47599 157.96898 161.95598 164.20598 166.69898 169.69597 173.68297 178.18297 181.68398 188.67697 191.16997 194.67098 198.17198 200.66498 205.16498 209.66498 211.91498 216.41498 220.91498 223.16498 227.15198 231.65198 233.90198 240.39998 246.89798 253.39598 258.886 266.887 269.884 274.888 280.378 286.87599 292.36598 298.86396 301.11396 306.11796 312.61595 318.60993 320.85993 323.35295 327.85295 330.10295 334.60295 339.10295 341.59596 346.09596 350.59596 355.09596 357.34596 360.34297 364.84297 367.83998 370.08998 372.58299 376.56999 380.07099 382.564 385.057 389.557 394.057 396.307 399.30403 401.79704 404.29005 406.78306 410.77006 413.76707">Implemented QPSK data transmission on an ADALM-PLUTO SDR in python for testing filters</tspan></text>
<text xml:space="preserve" transform="matrix(1 0 -0 1 0 792)" font-size="9" font-family="OpenSymbol"><tspan y="-484.45" x="54.1"></tspan></text>
<text xml:space="preserve" transform="matrix(1 0 -0 1 0 792)" font-size="9" font-family="Liberation Serif"><tspan y="-484.45" x="72.1 77.104 80.101 84.601 89.101 92.053 96.04 103.033008 110.026 114.013 118.513 120.763 127.756 130.249 134.236 137.23299 141.73299 145.71999 150.21999 154.71999 157.21298 160.20998 164.70998 167.20298 169.69597 173.68297 176.67996 180.18097 182.43097 185.42797 189.92797 192.92496 195.17496 199.16196 206.15496 210.65496 214.64196 219.14196 223.64196 227.59296 232.09296 234.34296 240.38196 245.38596 247.63596 251.13697 255.63697 259.13798 261.63099 265.61799 272.611 276.112 278.362 280.855 285.355 287.605 290.09803 297.09104 301.59104 304.08406 308.07106 315.06407 319.05107 323.55107 326.04408 328.29408 331.79508 334.2881 338.23908 340.7321 344.7191 346.9691 353.9621 357.9491 361.9361 366.4361 368.9291 373.4291 377.4161 380.9171 383.1671 387.1541 391.6541 396.1541 398.4041 402.3911 406.8911 409.1411 413.1281 420.12113 424.62113 428.60813 433.10813 437.60813 441.59513 446.09513 448.34513 454.8431 461.3411">Programmed microcontrollers for embedded RF systems to implement state machines and an embedded GUI</tspan></text>
<text xml:space="preserve" transform="matrix(1 0 -0 1 0 792)" font-size="9" font-family="OpenSymbol"><tspan y="-474.1" x="54.1"></tspan></text>
<text xml:space="preserve" transform="matrix(1 0 -0 1 0 792)" font-size="9" font-family="Liberation Serif"><tspan y="-474.1" x="72.1 78.553 83.053 85.591 90.091 97.084 101.034999 103.528 107.515 112.015 114.265 116.757999 120.744998 124.245998 126.739 129.232 133.732 138.232 140.482 144.982 147.97899 150.22899 152.72199 157.22199 161.72199 165.70899 170.20899 172.70198 176.68898 178.93898 181.93598 184.42897 186.92197 189.41497 193.40196 196.39896 199.89997 202.14997 206.64997 211.14997 213.39997 219.89797 223.88497 228.38497 231.88597 234.37897 238.87897 243.37897 245.87197 248.12197 254.61997 258.60697 261.09999 267.59797 272.09797 275.09498 279.59498 281.84498 288.34297 292.84297 296.82997 299.32298 303.82298 307.77397 311.76097 314.75798 318.25898 320.50898 323.00199 327.50199 330.499 334.999 339.499 343.999 348.499 350.749 357.24699 362.25099 365.248 371.24198 373.49198 377.47898 381.97898 388.972 395.965 399.952 404.452 408.952 412.453 414.703 418.204 422.191 426.691 429.18403 431.43403 435.93403 440.43403 442.68403 446.67103 448.92103 453.92503">Automated testing of tunable filters on Keysight Network Analyzers through GPIB commands sent by a PC</tspan></text>
<text xml:space="preserve" transform="matrix(1 0 -0 1 0 792)" font-size="9" font-family="Liberation Serif" font-weight="bold"><tspan y="-458.75" x="36.1 41.104 44.101 49.105005 54.109006 58.096006 63.100008 66.09701 68.34701 74.34101 78.32801 82.82801 85.321018 90.32501 94.31201 98.29901 100.54901 106.543018 111.54701 116.04701 118.54001 123.54401 127.531009 131.518">Student Trainee Engineer</tspan></text>
<text xml:space="preserve" transform="matrix(1 0 -0 1 0 792)" font-size="9" font-family="Liberation Serif"><tspan y="-458.75" x="288.1"> </tspan></text>
<text xml:space="preserve" transform="matrix(1 0 -0 1 0 792)" font-size="9" font-family="Liberation Serif"><tspan y="-458.75" x="324.1 326.35">  </tspan></text>
<text xml:space="preserve" transform="matrix(1 0 -0 1 0 792)" font-size="9" font-family="Liberation Serif"><tspan y="-458.75" x="360.1 362.35 364.6 366.85 369.1 371.35 373.6 375.85 378.1 380.35 382.6 384.85 387.1 389.35">              </tspan></text>
<text xml:space="preserve" transform="matrix(1 0 -0 1 0 792)" font-size="9" font-family="Liberation Serif"><tspan y="-458.75" x="432.1 434.35 436.6 438.85 441.1 443.35 445.6 447.85 450.1 452.35 454.6 456.85 459.1 461.35">              </tspan></text>
<text xml:space="preserve" transform="matrix(1 0 -0 1 0 792)" font-size="9" font-family="Liberation Serif"><tspan y="-458.75" x="468.1 470.35 472.6 474.85 477.1 479.35 481.6">       </tspan></text>
<text xml:space="preserve" transform="matrix(1 0 -0 1 0 792)" font-size="9" font-family="Liberation Serif"><tspan y="-458.75" x="504.1 506.35 508.6 510.85 513.1 515.35 517.6 519.85 522.1 527.104 531.604 538.597 545.58999 549.57699 552.529 554.779 559.279 563.779 568.279">        Summer 2024</tspan></text>
<text xml:space="preserve" transform="matrix(1 0 -0 1 0 792)" font-size="9" font-family="Liberation Serif" font-style="italic"><tspan y="-448.4" x="36.1 41.104 43.597 48.097 52.084 56.035 59.536 61.786 67.276 69.769 73.27 75.52 81.009998 85.509998 89.010997 92.99799 96.98499 99.23499 104.72499 109.22499 112.72599">Tinker Air Force Base</tspan></text>
<text xml:space="preserve" transform="matrix(1 0 -0 1 0 792)" font-size="9" font-family="Liberation Serif"><tspan y="-448.4" x="396.1 398.35 400.6 402.85 405.1 407.35 409.6 411.85">        </tspan></text>
<text xml:space="preserve" transform="matrix(1 0 -0 1 0 792)" font-size="9" font-family="Liberation Serif"><tspan y="-448.4" x="468.1"> </tspan></text>
<text xml:space="preserve" transform="matrix(1 0 -0 1 0 792)" font-size="9" font-family="Liberation Serif"><tspan y="-448.4" x="470.35"> </tspan></text>
<text xml:space="preserve" transform="matrix(1 0 -0 1 0 792)" font-size="11" font-family="OpenSymbol"><tspan y="-437.15" x="54.1"></tspan></text>
<text xml:space="preserve" transform="matrix(1 0 -0 1 0 792)" font-size="9" font-family="Liberation Serif"><tspan y="-437.15" x="72.1 78.094 82.594 85.087009 89.038 91.531009 95.518009 100.018009 102.268009 104.761 109.261 112.258 116.758 121.258 125.758 130.258 132.508 139.50099 144.00099 146.49399 148.98699 151.47998 155.97998 158.47298 162.45998 164.70998 168.21099 172.71099 177.21099 181.19799 185.69799 188.69498 193.19498 197.69498 201.19599 203.44599 207.94599 210.94298 213.19298 215.68598 220.18598 224.17298 226.42298 230.92298 235.42298 237.91597 242.41597 244.66597 249.66997 254.16997 257.16697 259.65998 266.15797 270.14497 273.14198 277.12898 279.37898 284.86897 289.36897 293.86897 296.36198 300.86198 304.84898 308.83598 311.83299 314.326 318.826 323.326 325.576 332.07398 335.02598 339.52598 344.02598">Rotated through multiple squadrons of the 76th Software Engineering Group</tspan></text>
<text xml:space="preserve" transform="matrix(1 0 -0 1 0 792)" font-size="11" font-family="OpenSymbol"><tspan y="-425.5" x="54.1"></tspan></text>
<text xml:space="preserve" transform="matrix(1 0 -0 1 0 792)" font-size="9" font-family="Liberation Serif"><tspan y="-425.5" x="72.1 80.550998 85.050998 88.048 92.548 96.534999 101.034999 103.284999 109.783 112.276 114.769 119.269 121.519 125.02 129.51999 132.51699 135.00998 141.50798 145.49498 148.49198 152.47898 154.72898 157.22197 161.72197 163.97197 167.47298 169.96598 176.95897 181.45897 183.95197 187.93897 190.43196 194.41896 196.66896 200.65596 203.14896 206.14595 210.13295 213.12995 217.08095 220.07794 222.57094 224.82094 229.32094 233.30794 237.80794 241.79494 246.29494 248.78794 253.28794 256.28495 258.53495 262.52195 267.02195 271.52195 273.77195 276.76896 279.26197 283.76197 286.01197 290.51197 295.01197 299.51197 303.01298 305.26298 307.75599 312.25599 314.50599 318.007 320.5 327.493 331.993 334.48603 338.47303 340.96604 343.45906 347.95906 352.45906">Worked with software to simulate aircraft behavior and fix bugs in simulations</tspan></text>
<text xml:space="preserve" transform="matrix(1 0 -0 1 0 792)" font-size="11" font-family="OpenSymbol"><tspan y="-413.85" x="54.1"></tspan></text>
<text xml:space="preserve" transform="matrix(1 0 -0 1 0 792)" font-size="9" font-family="Liberation Serif"><tspan y="-413.85" x="72.1 78.553 83.053 87.04 89.533008 94.033008 98.020008 102.007 106.507 108.757 112.744 115.237 118.234 122.221 126.721 129.214 131.707 135.20801 137.45801 141.445 145.945 150.445 152.695 157.195 160.192 164.692 169.192 172.189 176.176 183.16899 190.16199 194.14899 198.64899 200.89899 204.84999 209.34999 211.84299 216.34299 223.33599 227.32299 229.81598 232.30898 236.29598 238.54598 241.03897 245.02597 248.52698 251.01998 253.26998 257.257 261.757 266.257 268.75 273.25 280.243 284.23 288.73 291.22303 293.47303 295.96604 300.46604 302.71604 307.21604 311.20304 313.69606 316.18907 320.68907 324.67607 327.16908 331.15608 333.40608 339.90406 346.40205 351.89204 355.39305 357.64305 360.64006 367.13804 371.63804 374.13105 376.62406 378.87406 385.37205 389.87205 394.37205 398.35905 401.35606 403.60606 409.06004 413.04704 416.54804 419.04106">Analyzed circuits and programmed automatic test equipment to validate UUTs (Unit Under Test)</tspan></text>
<text xml:space="preserve" transform="matrix(1 0 -0 1 0 792)" font-size="11" font-family="OpenSymbol"><tspan y="-402.2" x="54.1"></tspan></text>
<text xml:space="preserve" transform="matrix(1 0 -0 1 0 792)" font-size="9" font-family="Liberation Serif"><tspan y="-402.2" x="72.1 77.55399 81.54099 85.52799 88.524997 93.024997 97.01199 101.51199 103.76199 107.74899 112.24899 116.74899 119.24199 121.734989 125.721988 129.70899 132.20198 134.69498 139.19498 143.69498 147.19599 149.44599 153.94599 156.94298 159.19298 165.69098 170.19098 174.17798 176.42798 178.67798 184.67198 189.17198 191.42198 193.67198 197.65898 202.15898 206.65898 208.90898 211.40198 215.90198 219.88898 222.13898 226.63898 231.13898 235.63898 240.13898 242.38898 245.88999 249.84099 252.83798 255.33098 259.318 261.811 264.061 268.561 272.548 275.04103 279.028 281.278 285.778 290.278">Learned applications of Ada, C#, and the 1553 serial data bus</tspan></text>
<text xml:space="preserve" transform="matrix(1 0 -0 1 0 792)" font-size="9" font-family="Liberation Serif" font-weight="bold"><tspan y="-386.45" x="36.1 44.551 49.051 52.048 57.052003 59.302003 65.341 70.345 73.342 77.842">Math Tutor</tspan></text>
<text xml:space="preserve" transform="matrix(1 0 -0 1 0 792)" font-size="9" font-family="Liberation Serif"><tspan y="-386.45" x="216.1"> </tspan></text>
<text xml:space="preserve" transform="matrix(1 0 -0 1 0 792)" font-size="9" font-family="Liberation Serif"><tspan y="-386.45" x="396.1 398.35 400.6 402.85 405.1 407.35 409.6 411.85 414.1">         </tspan></text>
<text xml:space="preserve" transform="matrix(1 0 -0 1 0 792)" font-size="9" font-family="Liberation Serif"><tspan y="-386.45" x="432.1 434.35 436.6 438.85 441.1 443.35 445.6 447.85 450.1 452.35 454.6 456.85 459.1 461.35 463.6 470.05299 474.03999 476.533 481.033 485.533 489.52 492.517 494.767 499.267 503.767 508.267 512.76699 517.26699 523.76498 527.75198 531.73898 535.72598 542.71896 547.21896 551.20596 554.20297 556.45297 560.95297 565.45297 569.95297">              October 2022–December 2023</tspan></text>
<text xml:space="preserve" transform="matrix(1 0 -0 1 0 792)" font-size="9" font-family="Liberation Serif" font-style="italic"><tspan y="-376.1" x="36.1 42.553 47.053 49.591 53.542 57.529 61.03 64.531 67.024 69.517 73.504 75.754 80.254 82.746997 84.996997 91.494998 95.481998 97.97499 102.47499 106.97499 111.47499 117.97299 122.47299 124.72299 132.21999 136.71999 139.21298 143.71298 145.96298 151.95699 155.94399 160.44399 162.93698 166.92398">University of Oklahoma Math Center</tspan></text>
<text xml:space="preserve" transform="matrix(1 0 -0 1 0 792)" font-size="9" font-family="Liberation Serif" font-style="italic"><tspan y="-376.1" x="396.1 398.35 400.6 402.85 405.1 407.35 409.6 411.85 414.1 416.35 418.6 420.85 423.1">             </tspan></text>
<text xml:space="preserve" transform="matrix(1 0 -0 1 0 792)" font-size="9" font-family="Liberation Serif"><tspan y="-376.1" x="468.1"> </tspan></text>
<text xml:space="preserve" transform="matrix(1 0 -0 1 0 792)" font-size="9" font-family="Liberation Serif"><tspan y="-376.1" x="470.35"> </tspan></text>
<text xml:space="preserve" transform="matrix(1 0 -0 1 0 792)" font-size="11" font-family="OpenSymbol"><tspan y="-359.85" x="54.1"></tspan></text>
<text xml:space="preserve" transform="matrix(1 0 -0 1 0 792)" font-size="9" font-family="Liberation Serif"><tspan y="-359.85" x="72.1 77.55399 82.05399 84.547 89.047 92.044 96.031 100.531 102.781 109.279 115.777 118.027 123.031 125.524 130.024 134.524 138.511 143.011 145.504 149.005 151.255 153.748 158.248 160.498 167.491 171.478 173.971 178.471 182.458 189.45099 193.43799 195.93099 198.42398 202.41098 205.91199 208.16199 211.15898 215.65898 218.65598 220.90598 226.39598 228.88898 233.38898 237.37598 241.36298 244.35997 246.60997 253.10797 255.60097 260.10096 264.05195 268.55195 271.54896 275.53596 277.78596 280.03596 286.02995 290.01695 292.50996 296.49696 300.99696 303.48997 307.98997 311.49098 313.74098 315.99098 319.97798 324.47798 328.97798 331.22798 337.72596 340.21897 343.21598 346.21299 350.19999 353.197 357.184 361.684 364.177 366.67 370.657 373.15003 375.40003 380.89 385.39 389.89 393.841 396.37904 398.87205 403.37205 407.87205">Tutored OU Students in mathematics for Linear Algebra, Calculus, and Differential Equations</tspan></text>
<text xml:space="preserve" transform="matrix(1 0 -0 1 0 792)" font-size="12" font-family="Liberation Serif" font-weight="bold"><tspan y="-341.3" x="36.1 43.396 48.735998 54.735998 58.731996 64.035999 69.376 73.372">Projects</tspan></text>
<text xml:space="preserve" transform="matrix(1 0 -0 1 0 792)" font-size="9" font-family="Liberation Serif" font-weight="bold"><tspan y="-322.8" x="36.1 41.554 46.054 50.041 54.028 61.021 66.025 70.525 74.512">FaceGuard</tspan></text>
<text xml:space="preserve" transform="matrix(1 0 -0 1 0 792)" font-size="9" font-family="Liberation Serif"><tspan y="-322.8" x="216.1"> </tspan></text>
<text xml:space="preserve" transform="matrix(1 0 -0 1 0 792)" font-size="9" font-family="Liberation Serif"><tspan y="-322.8" x="396.1 398.35 400.6 402.85 405.1 407.35 409.6 411.85 414.1 416.35 418.6 420.85 423.1">             </tspan></text>
<text xml:space="preserve" transform="matrix(1 0 -0 1 0 792)" font-size="9" font-family="Liberation Serif"><tspan y="-322.8" x="468.1 470.35 472.6 474.85 477.1 479.35 481.6 483.85 486.1 488.35 490.6 492.85 495.1">             </tspan></text>
<text xml:space="preserve" transform="matrix(1 0 -0 1 0 792)" font-size="9" font-family="Liberation Serif"><tspan y="-322.8" x="504.1 506.35 508.6 510.85 513.1 515.35 517.6 519.85 522.1 524.35 526.6 528.85 531.1 533.35 535.6 542.053 546.553 549.55 552.04299 554.53598 556.78598 561.28598 565.78598 570.28598">              April 2023</tspan></text>
<text xml:space="preserve" transform="matrix(1 0 -0 1 0 792)" font-size="11" font-family="OpenSymbol"><tspan y="-311.55" x="54.1"></tspan></text>
<text xml:space="preserve" transform="matrix(1 0 -0 1 0 792)" font-size="9" font-family="Liberation Serif"><tspan y="-311.55" x="72.1 78.553 81.55 83.8 88.3 92.8 99.298007 103.285 106.282009 110.269008 114.769008 117.019008 119.51201 124.01201 127.99901 132.49901 134.74901 137.242 141.742 143.992 147.979 152.479 154.972 159.472 163.972 168.472 175.465 179.965 184.465 187.966 190.459 194.959 197.209 201.709 206.209 208.702 213.202 217.189 221.689 223.939 230.437 234.937 238.924 243.424 245.674 249.661 254.161 256.411 260.398 264.898 267.39103 271.89103 276.39103 279.38804 281.88105 285.83204 289.81904 294.31904 296.56904 301.06904 304.57005 308.55705 311.55406 314.55107 318.05207 320.30207 323.29908 327.28608 331.27308 335.26008 337.51008 340.00309 343.5041 345.7541 350.2541 354.2411 356.7341 360.7211 364.7081 367.2011 371.1521 375.6521 377.9021 382.4021 385.93913 388.43214 392.93214 397.43214 399.68214 406.1801 410.1311 414.1181 418.6181 423.6221 427.6091 431.5961">AI powered lock to autonomously unlock when an authorized user’s face is detected using DeepFace</tspan></text>
<text xml:space="preserve" transform="matrix(1 0 -0 1 0 792)" font-size="11" font-family="OpenSymbol"><tspan y="-299.9" x="54.1"></tspan></text>
<text xml:space="preserve" transform="matrix(1 0 -0 1 0 792)" font-size="9" font-family="Liberation Serif"><tspan y="-299.9" x="72.1 78.094 81.091 85.042 89.029 91.522 95.509 100.009 102.259 104.752 109.252 111.502 116.002 120.502 122.752 127.252 131.752 136.252 139.249 142.75 145 149.5 153.001 155.494 159.994 164.494 166.744 173.242 176.239 180.739 185.239 187.732 192.232 196.732 198.982 202.969 207.469 211.969 214.219 219.22299 223.72299 226.21599 230.71599 235.21599 239.71599 241.96599 244.21599 250.71399 253.20699 255.69998 260.19999 262.44999 264.943 269.443 273.43 275.68 278.173 282.673 286.66 291.16 293.653 298.153 302.653 304.903 311.89604 315.88304 319.87004 324.37004 328.35704 332.85704 335.35005 338.85105 345.84407 348.09407 352.08106 356.58106 361.08106 363.57408 366.57109 371.07109 373.5641 376.0571 380.0441 384.5441 386.7941 391.2941 395.7941 398.0441 401.9951 404.2451 407.7461 411.7331 414.7301 419.2301 423.7301 425.9801 432.9731 437.4731 439.96614 444.46614">Created in 24 hours using Arduino and Python, with the locking mechanism controlled by a servo motor</tspan></text>
<text xml:space="preserve" transform="matrix(1 0 -0 1 0 792)" font-size="11" font-family="OpenSymbol"><tspan y="-288.25" x="54.1"></tspan></text>
<text xml:space="preserve" transform="matrix(1 0 -0 1 0 792)" font-size="9" font-family="Liberation Serif"><tspan y="-288.25" x="72.1 80.550998 83.04399 87.54399 92.04399 96.03099 99.02799 101.27799 105.77799 108.774997 111.024997 115.01199 121.006 124.993 128.494 130.987 133.237 139.735 143.722 146.719 151.219 157.717 161.704 164.70099 168.68799 170.93799 177.43599 181.42299 185.374 189.874 193.861 196.111 200.611 205.111 208.10799 210.60099 215.10099 219.60099 221.85099 228.34899 232.33599 236.32299 240.82299 243.31598 247.30298 251.80298 256.30299 263.296 267.283 269.533 274.033 278.533 283.033 287.533 289.783 292.033 296.533 299.026 303.013 309.511 313.498 317.998 320.491 324.478 326.728 330.679 333.172 335.422 339.922 342.415 344.90803 349.40803 352.90904 355.40205 357.89506 360.43309 364.93309 368.88407 373.38407 377.88407 382.38407 385.88508 388.37809 390.62809 394.61509 399.11509 406.1081 408.6011 412.1021 416.6021 419.59913 422.09214 428.59013 432.57713 435.57414 439.56114 442.05415 445.05116 449.03816 453.02516 457.01216 461.51216 466.01216 469.99916 472.99617">Winner of “Best Hardware Hack” during Hacklahoma 2023, viewable at https://devpost.com/software/faceguard</tspan></text>
<text xml:space="preserve" transform="matrix(1 0 -0 1 0 792)" font-size="9" font-family="Liberation Serif" font-weight="bold"><tspan y="-277.5" x="36.1 41.554 46.054 51.544004 53.794004 62.281003 66.781009 71.281009 73.774 78.778 83.278 85.528 94.528 97.020999 102.510997">P2P Moving WiFi</tspan></text>
<text xml:space="preserve" transform="matrix(1 0 -0 1 0 792)" font-size="9" font-family="Liberation Serif" font-weight="bold"><tspan y="-277.5" x="504.1 506.35 508.6 510.85 513.1 515.35 517.6 519.85 522.1 524.35">          </tspan></text>
<text xml:space="preserve" transform="matrix(1 0 -0 1 0 792)" font-size="9" font-family="Liberation Serif"><tspan y="-277.5" x="526.6 530.10098 534.05197 538.55197 543.05197 547.03897 550.03598 554.53598 556.78598 561.28598 565.78598 570.28598">January 2025</tspan></text>
<text xml:space="preserve" transform="matrix(1 0 -0 1 0 792)" font-size="11" font-family="OpenSymbol"><tspan y="-266.25" x="54.1"></tspan></text>
<text xml:space="preserve" transform="matrix(1 0 -0 1 0 792)" font-size="9" font-family="Liberation Serif"><tspan y="-266.25" x="72.1 78.553 82.090007 84.58301 89.08301 93.58301 95.83301 100.33301 102.58301 105.53501 110.03501 114.02201 118.52201 122.02301 126.01001 130.51001 132.76001 139.25801 143.24501 147.74501 150.238 152.488 158.98601 163.48601 165.979 169.966 174.466 178.966 182.953 186.45401 188.70401 195.697 200.197 204.697 209.197 211.69 215.677 220.177 222.427 224.92 229.42 231.67 235.171 239.158 242.155 246.655 251.155 254.656 256.906 259.156 261.64903 266.14903 268.64204 272.14305 274.39305 278.89305 281.89006 286.39006 288.88307 292.87007 296.85707 299.35008 301.60008 308.59309 312.58009 315.0731 319.5731 322.0661 326.0531 328.5461 333.0461 336.54713 338.79713 342.7481 344.9981 351.4961 353.9891 356.9861 359.47914 361.72914 365.71614 370.21614 374.71614 379.21614 383.20314 387.19013 389.68315 392.17616 396.67616 401.17616 403.42616 407.92616 412.42616 416.41316 419.41017 421.66017 424.15318 428.65318 433.15318 437.65318 439.90318 442.90019 446.88719 451.38719 455.88719 459.87419 463.37519 465.62519 472.12318 476.62318 479.11619 481.6092 485.5962 487.8462 494.8392 499.3392 503.8392 506.3322 510.8322">Using 2 focused Yagi Antennas mounted to servos, this project maintains a wifi connection over long ranges while moving</tspan></text>
<text xml:space="preserve" transform="matrix(1 0 -0 1 0 792)" font-size="11" font-family="OpenSymbol"><tspan y="-254.6" x="54.1"></tspan></text>
<text xml:space="preserve" transform="matrix(1 0 -0 1 0 792)" font-size="9" font-family="Liberation Serif"><tspan y="-254.6" x="72.1 77.55399 82.593997 87.59799 92.09799 96.59799 100.09899 102.34899 106.33599 110.83599 115.33599 117.828998 120.826 125.326 127.819 130.069 132.562 137.062 141.013 143.263 146.8 150.751 153.748 158.248 162.748 166.24901 168.49901 172.48601 176.98601 181.48601 183.73601 187.723 192.223 199.216 206.209 210.709 215.209 217.702 221.689 225.676 228.16899 232.15599 234.40599 240.90399 245.90799 250.91199 253.16199 255.65499 260.15498 263.15199 267.65199 272.15199 276.65199 281.15199 283.40199 285.895 290.395 294.382 296.632 303.12998 305.623 308.62 311.113 313.363 317.863 321.85 324.34303 330.841 335.341 338.338 342.838 345.088 347.338 352.828 357.328 361.315 363.565 366.562 369.514 374.014 378.514 381.00703 383.25703 387.24403 391.74403 396.24403 398.49403 400.98704 404.48805 406.73805 411.23805 415.73805 418.23106 420.72407 423.21708 425.46708 427.96009 432.46009 434.71009 439.7501 444.2501 446.7431 451.2431 455.7431 460.2431 462.4931 468.9911 471.4841 473.9771 478.4771 480.7271 486.2171 490.7171 493.2101 497.7101 500.20314 504.1541">ESP32s control the servos and communicate GPS through the wifi network. The front end is built in Python with Tkinter</tspan></text>
<text xml:space="preserve" transform="matrix(1 0 -0 1 0 792)" font-size="12" font-family="Liberation Serif" font-weight="bold"><tspan y="-236.05" x="36.1 44.752 51.4 54.736005 60.736005 66.076007 71.380008 76.036 79.372 83.368007 89.368007 92.368007 97.024 103.708 109.708 115.708 119.044 125.044 130.348 140.34401 145.684 152.332">University Involvement</tspan></text>
<text xml:space="preserve" transform="matrix(1 0 -0 1 0 792)" font-size="9" font-family="Liberation Serif" font-weight="bold"><tspan y="-217.55" x="36.1 41.104 45.604 50.104 55.108 59.095 63.082 65.332 71.785 76.285 80.272 82.765 87.805 92.305 94.555 100.549 104.5 109 116.497 118.747 121.744 127.234 132.238 138.73601 144.73001 147.727 149.977 155.97101 158.464 162.451 166.438 169.435 173.422 175.915 179.902 184.402 186.89499 189.14499 195.13899 199.12599 203.62599">Sooner Racing Team (FSAE) Electrical Lead</tspan></text>
<text xml:space="preserve" transform="matrix(1 0 -0 1 0 792)" font-size="9" font-family="Liberation Serif"><tspan y="-217.55" x="252.1"> </tspan></text>
<text xml:space="preserve" transform="matrix(1 0 -0 1 0 792)" font-size="9" font-family="Liberation Serif"><tspan y="-217.55" x="396.1 398.35 400.6 402.85 405.1 407.35 409.6 411.85">        </tspan></text>
<text xml:space="preserve" transform="matrix(1 0 -0 1 0 792)" font-size="9" font-family="Liberation Serif"><tspan y="-217.55" x="432.1 434.35 436.6 438.85 441.1 443.35 445.6">       </tspan></text>
<text xml:space="preserve" transform="matrix(1 0 -0 1 0 792)" font-size="9" font-family="Liberation Serif"><tspan y="-217.55" x="468.1 470.35 472.6 474.85 477.1 479.35 481.6 483.85 486.1 489.601 493.552 498.052 502.552 506.539 509.536 514.036 516.286 520.786 525.286 529.786 534.286 538.786 546.787 550.774 555.274 557.524 562.024 566.524 571.024">        January 2023–May 2026</tspan></text>
<text xml:space="preserve" transform="matrix(1 0 -0 1 0 792)" font-size="9" font-family="OpenSymbol"><tspan y="-207.2" x="54.1"></tspan></text>
<text xml:space="preserve" transform="matrix(1 0 -0 1 0 792)" font-size="9" font-family="Liberation Serif"><tspan y="-207.2" x="72.1 78.094 82.045 86.545 89.542 94.042 98.542 101.539 105.526 112.519 119.51199 123.49899 127.99899 130.249 132.74199 137.24199 141.22899 143.47899 148.969 154.963 161.461 163.711 166.708 169.20099 172.19799 179.19098 185.68898 189.67598 192.67298 196.65998 198.90998 201.40297 205.90297 208.15297 214.14698 216.39698 218.88997 223.38997 225.63997 229.14098 233.12798 237.62798 242.12798 244.37798 246.87097 250.85797 253.35097 257.30198 264.29499 268.28199 270.775 273.772 278.272 280.522 286.516 293.01399 299.51197 301.76197 308.75498 312.74198 316.24299 319.744 323.731 328.231 332.218 335.719 337.969 341.956 346.456 350.956 353.206 357.706 361.693 364.186 366.67903 371.17903 375.16603 377.65904 381.64604 383.89604 386.89305 390.88005 395.38005 397.87306 400.36607">Reprogrammed the ECU firmware in C to send telemetry CAN messages and validate faults</tspan></text>
<text xml:space="preserve" transform="matrix(1 0 -0 1 0 792)" font-size="9" font-family="OpenSymbol"><tspan y="-196.85" x="54.1"></tspan></text>
<text xml:space="preserve" transform="matrix(1 0 -0 1 0 792)" font-size="9" font-family="Liberation Serif"><tspan y="-196.85" x="72.1 78.553 82.54 86.041 88.534 93.034 97.534 101.520999 106.020999 108.270999 110.76399 115.26399 119.25099 121.50099 125.00199 129.50199 134.00199 138.50199 142.48899 145.48598 147.73598 150.73297 154.71997 158.70697 161.19997 165.69997 170.19997 172.44997 174.94297 178.92996 182.91696 189.90996 192.15996 198.65796 202.64496 207.14496 210.64597 213.13896 215.63196 219.61896 221.86896 224.11896 228.61896 231.11196 235.06296 241.56096 245.54796 250.04796 252.54096 256.52796 258.77796 262.76496 265.25798 267.50798 271.00898 275.50898 280.00898 284.50898 288.49598 291.49299 294.49 298.477 302.464 304.957 309.457 313.957 316.207 320.194 324.694">Designed the sooner racing team website, viewable at soonerracing.com</tspan></text>
<text xml:space="preserve" transform="matrix(1 0 -0 1 0 792)" font-size="11" font-family="OpenSymbol"><tspan y="-185.6" x="54.1"></tspan></text>
<text xml:space="preserve" transform="matrix(1 0 -0 1 0 792)" font-size="9" font-family="Liberation Serif"><tspan y="-185.6" x="72.1 77.104 79.597 83.584 86.536 89.02901 93.01601 97.51601 99.76601 102.259 106.759 110.746 112.996 118.486 124.984 127.234 132.238 137.242 143.74 149.23001 151.48001 153.973 157.96 161.947 168.94 171.19 175.177 177.67 179.92 186.418 192.916 195.166 199.153 203.653 208.153 210.403 214.903 218.89 222.391 224.884 229.384 233.884 237.871 242.371 244.621 247.114 251.614 255.601 257.851 263.341 269.839 272.089 278.58699 282.57398 286.52497 291.02497 298.01799 302.51799 305.011 308.998 311.491 315.991 318.988 321.238 324.23503 328.73503 332.72203 335.21504 337.70805 341.69505 344.69206 349.19206 352.18907 354.43907 358.42607 362.92607 367.42607 369.67607 373.17707 377.67707 382.17707 384.67008 389.17008 393.67008 400.16807 404.66807 406.91807 410.90507 413.39808 416.39509 420.38209 424.88209 427.3751">Started the EV FSAE team at OU and designed the EV Accumulator (battery) and shutdown circuit</tspan></text>
<text xml:space="preserve" transform="matrix(1 0 -0 1 0 792)" font-size="11" font-family="OpenSymbol"><tspan y="-173.95" x="54.1"></tspan></text>
<text xml:space="preserve" transform="matrix(1 0 -0 1 0 792)" font-size="9" font-family="Liberation Serif"><tspan y="-173.95" x="72.1 78.553 82.54 86.041 88.534 93.034 97.534 101.520999 106.020999 108.270999 112.257999 116.757999 121.257999 123.507999 126.00099 132.99399 137.49399 139.98699 143.97399 150.96698 154.95398 159.45398 161.94698 165.93398 170.43398 172.68398 175.17697 179.67697 183.66397 185.91397 189.90097 192.39397 196.38097 200.36797 202.86096 205.81296 210.31296 214.81296 217.35095 221.30196 223.55196 226.04496 230.54496 233.54195 238.04195 240.53495 243.02794 245.52094 249.50794 251.75794 255.74494 260.24494 264.74494 267.23796 270.23497 274.73497 277.22798 279.47798 282.97898 287.47898 290.97999 293.473 297.46 304.453 306.703 311.203 315.703 317.953 320.446 324.946 328.933 331.183 334.18003 340.174 342.424 346.411 350.398 353.39503 355.64503 359.63203 363.61903 367.57 372.07 375.06703 379.56703 382.06004 386.56004 391.06004 393.31004 395.80305 400.30305 402.55305 407.59306 412.59706 419.09504 424.58503 426.83503 429.78703 434.28703 436.82505 440.77604">Designed and implemented the electronic throttle control system on the IC car according to FSAE rules</tspan></text>
<text xml:space="preserve" transform="matrix(1 0 -0 1 0 792)" font-size="11" font-family="OpenSymbol"><tspan y="-162.3" x="54.1"></tspan></text>
<text xml:space="preserve" transform="matrix(1 0 -0 1 0 792)" font-size="9" font-family="Liberation Serif"><tspan y="-162.3" x="72.1 78.553 83.053 87.553 91.54 96.04 98.29 102.277 106.777 110.278 112.770999 117.270999 124.26399 126.51399 129.00699 132.99399 135.48699 139.47399 146.46698 150.45398 152.94698 155.94397 160.44397 162.69397 166.19498 170.18198 174.68198 178.18299 182.68299 185.67998 189.18099 191.43099 193.92398 198.42398 200.67398 203.16698 207.66698 211.65398 213.90398 217.89098 221.87798 224.87497 227.12497 230.12197 234.62197 237.61896 239.86896 243.81996 248.31996 252.81996 255.31296 259.29997 263.79997 266.29298 268.54298 271.53999 274.033 278.533 285.03099 287.28099 290.27799 294.26499 296.758 300.745 302.995 305.245 307.738 311.725 318.71803 323.21803 327.20503 330.20204 334.18904 336.68205 341.18205 344.17906 348.13005 350.38005 352.63005 356.16706 360.66706 364.16807 368.66807 372.61906 377.11906 380.65608 383.14909 387.64909 392.14909 394.39909 396.8921 399.8441 403.8311 408.3311 412.31809 414.8111 417.0611 419.3111 423.2981 427.7981 432.2981 434.5481 441.5411 446.0411 449.03813">Added custom telemetry sensors to the car for coolant flow rate, temperature, suspension travel, and more</tspan></text>
<text xml:space="preserve" transform="matrix(1 0 -0 1 0 792)" font-size="11" font-family="OpenSymbol"><tspan y="-150.65" x="54.1"></tspan></text>
<text xml:space="preserve" transform="matrix(1 0 -0 1 0 792)" font-size="9" font-family="Liberation Serif"><tspan y="-150.65" x="72.1 78.094 82.594 85.087009 87.58 91.531 95.518 98.011 101.998 106.498 108.748 112.735 117.235 121.735 123.985 126.478 130.978 133.471 137.458 140.45499 144.95499 147.95198 151.93898 154.43198 158.41898 162.91898 165.16898 167.66197 170.15497 174.65497 178.64197 180.89197 185.39197 189.89197 192.38497 194.87796 198.86496 203.36496 207.31597 209.56597 213.10297 215.59597 220.09597 224.59597 228.54697 231.03997 234.54097 236.79097 239.78797 242.78496 247.28496 254.27796 256.52796 260.51496 262.76496 267.26496 271.76496 276.26496 280.25196 287.24497 291.74497 298.73799 302.72499 305.218 309.205 312.202 315.199 318.7 320.95 323.44303 327.94303 331.93003 336.43003 338.68003 342.66703 346.65403 349.14704 351.64006 353.89006 356.88706 361.38706 364.33906 366.58906 369.08207 373.58207 376.57908 381.07908 385.57908 389.56608 391.81608 395.80308 400.30308 404.80308 407.05308 409.54609 414.04609 418.03309 420.28309 425.77308 431.76707 438.26506 441.26206 444.76307 447.01307 453.00706 458.01106">Collected and interpreted live voltage signals from a dynamometer’s load cell for torque and the ECU’s RPM</tspan></text>
<text xml:space="preserve" transform="matrix(1 0 -0 1 0 792)" font-size="9" font-family="Liberation Serif"><tspan y="-150.65" x="466.45"> </tspan></text>
<text xml:space="preserve" transform="matrix(1 0 -0 1 0 792)" font-size="9" font-family="Liberation Serif"><tspan y="-139.9" x="72.1 74.593 78.544 82.531 87.031 91.531 98.524 102.511 105.004 108.991 111.988 114.238 118.738 123.238 125.731 130.231 134.731 137.224 139.474 141.967 146.467 149.46399 153.96399 158.46399 162.96399 167.46399 169.71399 176.21199 180.19899 182.69199 185.18498 189.68498 194.18498 198.17198 200.66498 202.91498 205.91197 210.41197 213.91298 216.40598 219.40297 223.90297 230.89597 234.88297 239.38297 241.87596 245.37697 247.62697 254.12497 260.62297 267.12095 269.37095 273.87095 277.85795 282.35795 284.85096 288.80195 292.78895 296.28996 298.53996 301.03297 305.53297 307.78297 312.82298 317.32298 319.81599 324.31599 328.81599">tachometer output through National Instruments DAQ devices in Python</tspan></text>
<text xml:space="preserve" transform="matrix(1 0 -0 1 0 792)" font-size="11" font-family="OpenSymbol"><tspan y="-128.65" x="54.1"></tspan></text>
<text xml:space="preserve" transform="matrix(1 0 -0 1 0 792)" font-size="9" font-family="Liberation Serif"><tspan y="-128.65" x="72.1 75.052 82.045 86.545 89.037998 93.024997 100.01799 104.00499 108.50499 110.997989 114.984989 119.484989 121.734989 124.22798 128.72798 132.71498 134.96498 139.96898 144.46898 148.96898 151.96598 154.45897 156.70897 162.19898 164.69197 171.68497 175.67197 177.92197 182.92597 187.42597 191.92597 194.92296 197.41596 201.40296 204.39995 206.64995 212.13996 215.13695 219.12395 223.62395 227.12496 230.12195 234.62195 237.61894 244.61194 246.86194 249.35494 253.85494 256.10493 260.09193 264.59193 268.5429 271.03593 275.53593 279.52293 283.50993 285.75993 288.25294 290.74595 295.24595 299.23295 301.48295 305.46995 309.96995 313.95695 316.44996 320.94996 325.44996 327.69996 334.19795 338.18495 342.68495 346.67195 349.66896 354.16896 357.16596 364.15898 367.65998 369.90998 372.90699 375.85899 379.84599 384.34599 387.343 391.33 394.831 398.818 403.318 405.811 408.30403 412.80403 417.30403 419.55403 425.548 430.552 438.553">Implemented the Short Time Fourier Transform to analyze live analog waveforms (representing RPM)</tspan></text>
<text xml:space="preserve" transform="matrix(1 0 -0 1 0 792)" font-size="11" font-family="OpenSymbol"><tspan y="-117" x="54.1"></tspan></text>
<text xml:space="preserve" transform="matrix(1 0 -0 1 0 792)" font-size="9" font-family="Liberation Serif"><tspan y="-117" x="72.1 78.553 82.54 86.041 88.534 93.034 97.534 101.520999 106.020999 108.270999 112.257999 116.757999 121.257999 123.507999 127.494998 131.995 136.495 139.996 142.489 145.486 149.986 153.97299 156.46599 160.45299 164.95299 167.20299 169.69599 174.19599 178.18299 180.43299 184.41999 186.91298 189.90998 193.89698 198.39698 200.88997 203.38297 205.63297 208.62996 213.12996 216.08196 218.33196 220.82495 225.32495 229.31195 231.56195 235.54895 238.04195 242.02895 246.01595 248.50894 251.50594 253.99893 257.98594 260.23594 264.73594 267.22895 271.72895 274.22196 277.21897 281.20597 285.19297 287.68598 290.179 294.679 299.179 303.166 305.659 307.909 311.41 315.91 318.403 322.39 326.89 331.39 333.88304 338.38304 340.63304 344.13404 348.63404 351.12705 354.12406 356.61708 359.11009 363.61009 368.11009 370.36009 377.3531 381.30409 385.29109 389.79109 393.77809 398.27809 400.7711 404.2721 411.2651 413.5151 418.0151 422.5151 424.7651 427.25813 431.75813 435.74513 437.99513 440.99214 446.9861 449.2361 453.2231 457.2101 460.20713">Designed and constructed the circuit for the electric bidirectional solenoid shifting mechanism on the IC car.</tspan></text>
<text xml:space="preserve" transform="matrix(1 0 -0 1 0 792)" font-size="12" font-family="Liberation Serif" font-weight="bold"><tspan y="-98.45" x="36.1 42.748 49.396005 52.732007 56.06801 59.36801">Skills</tspan></text>
<text xml:space="preserve" transform="matrix(1 0 -0 1 0 792)" font-size="9" font-family="Liberation Serif" font-weight="bold"><tspan y="-79.95" x="36.1 42.093999 46.593999 51.598 56.098 61.102 65.602008 70.102008 74.089008 77.590007 80.587009">Languages: </tspan></text>
<text xml:space="preserve" transform="matrix(1 0 -0 1 0 792)" font-size="9" font-family="Liberation Serif"><tspan y="-79.95" x="82.85 88.844 93.893009 98.98701 101.23701 103.48701 108.491008 112.991008 115.48401 119.98401 124.48401 128.98401 131.23401 133.48401 139.47801 141.72801 143.97801 147.47902 151.46602 155.96602">C++, Python, C, Java</tspan></text>
<text xml:space="preserve" transform="matrix(1 0 -0 1 0 792)" font-size="9" font-family="Liberation Serif" font-weight="bold"><tspan y="-63.05" x="36.1 42.093999 46.045 50.031999 55.036 60.076 62.569 66.52 71.02 73.513 75.763 80.803 85.807 88.3 90.793 93.285999 96.786998 99.784">Technical Skills: </tspan></text>
<text xml:space="preserve" transform="matrix(1 0 -0 1 0 792)" font-size="9" font-family="Liberation Serif"><tspan y="-63.05" x="102.1 108.553 113.053 117.04 119.533008 124.033008 128.533 130.783 137.776 140.026 146.524 149.017 153.517 156.01 158.50299 162.48999 164.98299 167.23299 173.22699 175.71999 178.71698 182.70398 187.20398 189.69698 192.18997 194.43997 200.93798 204.92498 208.42598 210.91898 215.41898 219.91898 222.16898 224.41898 230.91698 235.41698 237.90998 241.89698 245.88397 248.37697 250.62697 257.12498 260.12199 262.615 266.602 271.102 273.595 277.582 282.082 284.332 289.336 292.333 296.833 301.333 304.33003 308.31703 315.31004 322.30305 324.79606 329.29606 333.79606 336.04606 338.29606 344.29005 348.79005 355.78306 360.28306 364.78306 367.27607 371.26307 374.26008 376.51008 383.00807 386.95906 389.45207 395.95005 400.45005 403.44706 407.94706 411.44807 413.69807 415.94807 422.44606 426.43305 428.92607 432.91307 437.41307 441.40007 444.90107 448.88807 451.13807 459.13908 463.12608 467.62608 471.61308 476.11308 480.10008 487.09309 491.08009 495.58009 498.0731 500.3231 502.5731 507.5771 512.0771 515.0741 517.5671 524.06509 528.05209 531.0491 535.00009">Analog &amp; Digital Circuit Design, Object Oriented Programming, Computer Networks, Database Management, Software </tspan></text>
<text xml:space="preserve" transform="matrix(1 0 -0 1 0 792)" font-size="9" font-family="Liberation Serif"><tspan y="-51.15" x="36.1 42.553 46.54 51.04 55.027 57.52 62.02 66.520008 73.513 77.5 82 84.493 86.743 88.993 93.996997 98.496997 100.98999 103.48299 107.98299 116.469989 120.969989 123.96699 128.46698 131.96799 134.21799 136.46799 141.47199 147.46599 153.45999 155.70999 162.208 166.19499 169.696 172.189 176.689">Development, SolidWorks, PCB Design</tspan></text>
<path transform="matrix(1,0,0,-1,0,792)" stroke-width="1.5" stroke-linecap="butt" stroke-linejoin="round" fill="none" stroke="#000000" d="M575.95 711.7H36" data-index="7"></path>
<path transform="matrix(1,0,0,-1,0,792)" stroke-width="1.5" stroke-linecap="butt" stroke-linejoin="round" fill="none" stroke="#000000" d="M575.95 602H36" data-index="8"></path>
<path transform="matrix(1,0,0,-1,0,792)" stroke-width="1.5" stroke-linecap="butt" stroke-linejoin="round" fill="none" stroke="#000000" d="M575.95 337H36" data-index="9"></path>
<path transform="matrix(1,0,0,-1,0,792)" stroke-width="1.5" stroke-linecap="butt" stroke-linejoin="round" fill="none" stroke="#000000" d="M575.95 231.7H36" data-index="10"></path>
<path transform="matrix(1,0,0,-1,0,792)" stroke-width="1.5" stroke-linecap="butt" stroke-linejoin="round" fill="none" stroke="#000000" d="M575.95 94.1H36" data-index="11"></path>
<path transform="matrix(1,0,0,-1,0,792)" stroke-width="1.5" stroke-linecap="butt" stroke-linejoin="round" fill="none" stroke="#000000" d="M575.95 711.7H36" data-index="12" style="opacity: 1;"></path>
<path transform="matrix(1,0,0,-1,0,792)" stroke-width="1.5" stroke-linecap="butt" stroke-linejoin="round" fill="none" stroke="#000000" d="M575.95 602H36" data-index="13" style="opacity: 1; visibility: visible; fill: rgb(121, 40, 202);"></path>
<path transform="matrix(1,0,0,-1,0,792)" stroke-width="1.5" stroke-linecap="butt" stroke-linejoin="round" fill="none" stroke="#000000" d="M575.95 337H36" data-index="14" style="opacity: 1;"></path>
<path transform="matrix(1,0,0,-1,0,792)" stroke-width="1.5" stroke-linecap="butt" stroke-linejoin="round" fill="none" stroke="#000000" d="M575.95 231.7H36" data-index="15"></path>
<path transform="matrix(1,0,0,-1,0,792)" stroke-width="1.5" stroke-linecap="butt" stroke-linejoin="round" fill="none" stroke="#000000" d="M575.95 94.1H36" data-index="16"></path>
</g>
</svg>